<?xml version="1.0" standalone="no"?>
<!DOCTYPE svg PUBLIC "-//W3C//DTD SVG 20010904//EN"
 "http://www.w3.org/TR/2001/REC-SVG-20010904/DTD/svg10.dtd">
<svg version="1.0" xmlns="http://www.w3.org/2000/svg"
 width="500.000000pt" height="500.000000pt" viewBox="0 0 500.000000 500.000000"
 preserveAspectRatio="xMidYMid meet">

<g transform="translate(0.000000,500.000000) scale(0.100000,-0.100000)"
fill="#000000" stroke="none">
<path d="M1533 3013 c-6 -27 -14 -56 -18 -65 -5 -13 -2 -18 9 -18 19 0 19 -4
5 -71 -9 -40 -8 -53 1 -59 10 -6 11 -20 3 -61 -9 -43 -8 -55 3 -64 12 -8 12
-18 -1 -65 -8 -30 -15 -56 -15 -57 0 -2 7 -3 15 -3 18 0 18 0 1 -72 -11 -49
-11 -58 0 -58 17 0 17 -5 2 -70 -10 -42 -9 -53 2 -60 11 -7 12 -18 2 -60 -15
-65 -15 -70 2 -70 12 0 12 -8 -1 -57 -13 -50 -13 -57 0 -65 12 -6 13 -16 6
-45 -15 -66 -20 -63 109 -63 117 0 118 0 146 29 19 20 26 35 22 48 -4 14 6 32
39 67 32 33 43 51 37 62 -6 10 5 28 35 60 29 30 42 51 38 63 -3 11 10 33 40
65 32 34 42 53 36 63 -6 11 6 29 40 65 39 41 47 54 39 69 -13 23 -13 29 3 29
22 1 76 75 70 98 -3 15 6 30 37 58 31 28 41 44 37 61 -3 16 8 35 40 68 35 37
42 50 37 70 -4 15 -2 25 4 25 6 0 24 18 41 39 28 35 30 42 20 65 l-12 26 -132
0 -131 0 -33 -34 c-27 -28 -32 -40 -27 -60 4 -18 2 -26 -6 -27 -21 0 -79 -80
-73 -98 3 -11 -11 -34 -40 -65 -33 -35 -42 -53 -36 -64 6 -11 -1 -24 -25 -49
-40 -39 -48 -41 -40 -9 4 16 1 26 -8 29 -11 5 -13 14 -6 39 20 82 21 88 5 88
-18 0 -18 0 -1 73 12 50 12 57 -2 57 -11 0 -13 7 -8 30 3 17 9 44 12 60 l7 30
-159 0 -159 0 -12 -47z"/>
<path d="M2700 2995 c0 -51 3 -65 15 -65 12 0 15 -14 15 -65 0 -51 3 -65 15
-65 12 0 15 -13 15 -59 0 -40 4 -60 14 -64 8 -3 16 -29 20 -65 4 -39 12 -62
21 -66 21 -8 19 -30 -5 -51 -14 -12 -18 -25 -14 -41 4 -16 2 -24 -7 -24 -8 -1
-34 -19 -58 -40 -36 -33 -42 -44 -37 -65 5 -20 3 -25 -11 -25 -10 -1 -37 -18
-61 -40 -36 -32 -42 -43 -36 -64 5 -21 3 -26 -12 -26 -11 -1 -38 -18 -62 -40
-37 -33 -42 -42 -33 -58 9 -17 7 -21 -12 -26 -12 -3 -35 -18 -50 -34 -25 -26
-27 -32 -16 -56 l12 -26 139 0 c136 0 140 1 174 27 28 21 34 31 29 50 -4 17
-1 25 12 30 10 4 37 22 60 42 34 28 41 39 37 58 -6 21 -3 23 30 23 l36 0 0
-59 c0 -43 4 -60 15 -65 11 -4 15 -20 15 -56 l0 -50 170 0 170 0 0 60 c0 47
-3 60 -15 60 -12 0 -15 13 -15 59 0 50 -3 59 -20 64 -17 4 -20 14 -20 66 0 48
-3 61 -15 61 -12 0 -15 14 -15 65 0 51 -3 65 -15 65 -16 0 -22 55 -6 64 4 3 6
17 3 31 -3 20 0 25 15 25 29 0 94 71 91 100 -2 17 3 25 17 28 11 2 37 20 57
40 29 27 36 41 32 59 -5 17 -2 23 10 23 9 0 36 18 61 41 38 35 43 44 35 65 -8
20 -6 24 8 24 9 1 35 16 56 36 36 31 39 37 30 62 l-9 27 -145 3 -144 3 -38
-37 c-29 -29 -36 -43 -32 -61 5 -18 2 -23 -13 -23 -30 0 -99 -76 -95 -105 3
-21 -1 -25 -22 -25 -25 0 -26 2 -26 65 0 50 -3 65 -15 65 -10 0 -15 15 -17 58
l-3 57 -167 3 -168 2 0 -65z"/>
</g>
</svg>
